<?xml version="1.0" encoding="UTF-8" standalone="no"?>
<!DOCTYPE svg PUBLIC "-//W3C//DTD SVG 1.1//EN"
 "http://www.w3.org/Graphics/SVG/1.1/DTD/svg11.dtd">
<!-- Generated by graphviz version 14.1.5 (20260411.2331)
 -->
<!-- Title: McpSkill Pages: 1 -->
<svg width="394pt" height="389pt"
 viewBox="0.00 0.00 394.00 389.00" xmlns="http://www.w3.org/2000/svg" xmlns:xlink="http://www.w3.org/1999/xlink">
<g id="graph0" class="graph" transform="scale(1 1) rotate(0) translate(25.2 370.75)">
<title>McpSkill</title>
<g id="clust1" class="cluster">
<title>cluster_arcp</title>
<path fill="#0f172a" stroke="#334155" d="M40.47,-8C40.47,-8 122.47,-8 122.47,-8 128.47,-8 134.47,-14 134.47,-20 134.47,-20 134.47,-178.25 134.47,-178.25 134.47,-184.25 128.47,-190.25 122.47,-190.25 122.47,-190.25 40.47,-190.25 40.47,-190.25 34.47,-190.25 28.47,-184.25 28.47,-178.25 28.47,-178.25 28.47,-20 28.47,-20 28.47,-14 34.47,-8 40.47,-8"/>
<text xml:space="preserve" text-anchor="start" x="44.47" y="-167.85" font-family="TT Commons Pro Trial" font-weight="bold" font-size="12.00" fill="#94a3b8">ARCP runtime</text>
</g>
<!-- Host -->
<g id="node1" class="node">
<title>Host</title>
<path fill="#3b82f6" stroke="#2563eb" stroke-width="1.4" d="M150.93,-352.75C150.93,-352.75 12,-352.75 12,-352.75 6,-352.75 0,-346.75 0,-340.75 0,-340.75 0,-328.75 0,-328.75 0,-322.75 6,-316.75 12,-316.75 12,-316.75 150.93,-316.75 150.93,-316.75 156.93,-316.75 162.93,-322.75 162.93,-328.75 162.93,-328.75 162.93,-340.75 162.93,-340.75 162.93,-346.75 156.93,-352.75 150.93,-352.75"/>
<text xml:space="preserve" text-anchor="start" x="15.84" y="-331.85" font-family="TT Commons Pro Trial" font-weight="bold" font-size="12.00" fill="white">MCP Host (Claude Code)</text>
</g>
<!-- Bridge -->
<g id="node2" class="node">
<title>Bridge</title>
<path fill="#f59e0b" stroke="#d97706" stroke-width="1.4" d="M116.43,-265.5C116.43,-265.5 46.5,-265.5 46.5,-265.5 40.5,-265.5 34.5,-259.5 34.5,-253.5 34.5,-253.5 34.5,-241.5 34.5,-241.5 34.5,-235.5 40.5,-229.5 46.5,-229.5 46.5,-229.5 116.43,-229.5 116.43,-229.5 122.43,-229.5 128.43,-235.5 128.43,-241.5 128.43,-241.5 128.43,-253.5 128.43,-253.5 128.43,-259.5 122.43,-265.5 116.43,-265.5"/>
<text xml:space="preserve" text-anchor="start" x="50.34" y="-244.6" font-family="TT Commons Pro Trial" font-weight="bold" font-size="12.00" fill="white">MCP Bridge</text>
</g>
<!-- Host&#45;&gt;Bridge -->
<g id="edge3" class="edge">
<title>Host&#45;&gt;Bridge</title>
<path fill="none" stroke="#94a3b8" stroke-width="1.2" d="M81.47,-316.09C81.47,-304.2 81.47,-288.31 81.47,-274.93"/>
<polygon fill="#94a3b8" stroke="#94a3b8" stroke-width="1.2" points="81.47,-267.6 84.84,-275.1 81.57,-269.89 81.57,-275.1 81.47,-275.1 81.37,-275.1 81.37,-269.89 78.09,-275.1 81.47,-267.6"/>
<text xml:space="preserve" text-anchor="middle" x="152.72" y="-288.2" font-family="TT Commons Pro Trial" font-size="9.00" fill="#94a3b8">tool: research(question, budget_usd)</text>
</g>
<!-- Skill -->
<g id="node3" class="node">
<title>Skill</title>
<polygon fill="#1e293b" stroke="#475569" points="338.06,-352.75 208.88,-352.75 208.88,-316.75 344.06,-316.75 344.06,-346.75 338.06,-352.75"/>
<polyline fill="none" stroke="#475569" points="338.06,-352.75 338.06,-346.75"/>
<polyline fill="none" stroke="#475569" points="344.06,-346.75 338.06,-346.75"/>
<text xml:space="preserve" text-anchor="start" x="224.72" y="-331" font-family="TT Commons Pro Trial" font-size="10.00" fill="#f1f5f9">skills/research/SKILL.md</text>
</g>
<!-- Host&#45;&gt;Skill -->
<g id="edge2" class="edge">
<title>Host&#45;&gt;Skill</title>
<path fill="none" stroke="#64748b" stroke-dasharray="5,2" d="M163.6,-334.75C175.66,-334.75 188.04,-334.75 199.98,-334.75"/>
<polygon fill="#64748b" stroke="#64748b" points="207.37,-334.75 199.87,-338.13 204.84,-334.75 199.87,-334.75 199.87,-334.75 199.87,-334.75 204.84,-334.75 199.87,-331.38 207.37,-334.75"/>
<text xml:space="preserve" text-anchor="middle" x="185.9" y="-340.45" font-family="TT Commons Pro Trial" font-size="9.00" fill="#94a3b8">reads</text>
</g>
<!-- Planner -->
<g id="node4" class="node">
<title>Planner</title>
<path fill="#334155" stroke="#475569" d="M103.31,-145.25C103.31,-145.25 59.62,-145.25 59.62,-145.25 53.62,-145.25 47.62,-139.25 47.62,-133.25 47.62,-133.25 47.62,-121.25 47.62,-121.25 47.62,-115.25 53.62,-109.25 59.62,-109.25 59.62,-109.25 103.31,-109.25 103.31,-109.25 109.31,-109.25 115.31,-115.25 115.31,-121.25 115.31,-121.25 115.31,-133.25 115.31,-133.25 115.31,-139.25 109.31,-145.25 103.31,-145.25"/>
<text xml:space="preserve" text-anchor="middle" x="81.47" y="-123.92" font-family="TT Commons Pro Trial" font-size="11.00" fill="#f1f5f9">Planner</text>
</g>
<!-- Bridge&#45;&gt;Planner -->
<g id="edge4" class="edge">
<title>Bridge&#45;&gt;Planner</title>
<path fill="none" stroke="#94a3b8" stroke-width="1.2" d="M81.47,-229.05C81.47,-220.7 81.47,-210.08 81.47,-198.89"/>
<polygon fill="#94a3b8" stroke="#94a3b8" stroke-width="1.2" points="81.47,-191.71 84.84,-199.21 81.57,-194 81.57,-199.21 81.47,-199.21 81.37,-199.21 81.37,-194 78.09,-199.21 81.47,-191.71"/>
<text xml:space="preserve" text-anchor="middle" x="118.22" y="-200.95" font-family="TT Commons Pro Trial" font-size="9.00" fill="#94a3b8">ARCPClient.submit</text>
</g>
<!-- Planner&#45;&gt;Host -->
<g id="edge5" class="edge">
<title>Planner&#45;&gt;Host</title>
<path fill="none" stroke="#f472b6" stroke-width="1.1" stroke-dasharray="5,2" d="M134.46,-155.95C190.34,-188.8 265.18,-245.54 225.47,-296.75 217.97,-306.42 196.28,-314 171.94,-319.71"/>
<polygon fill="#f472b6" stroke="#f472b6" stroke-width="1.1" points="164.91,-321.29 171.49,-316.35 167.25,-320.71 172.22,-319.6 172.23,-319.65 172.24,-319.7 167.27,-320.81 172.97,-322.94 164.91,-321.29"/>
<text xml:space="preserve" text-anchor="start" x="236.61" y="-244.12" font-family="TT Commons Pro Trial" font-size="9.00" fill="#f472b6">job.result → tool response</text>
</g>
<!-- Workers -->
<g id="node5" class="node">
<title>Workers</title>
<path fill="#334155" stroke="#475569" d="M104.06,-58C104.06,-58 58.88,-58 58.88,-58 52.88,-58 46.88,-52 46.88,-46 46.88,-46 46.88,-34 46.88,-34 46.88,-28 52.88,-22 58.88,-22 58.88,-22 104.06,-22 104.06,-22 110.06,-22 116.06,-28 116.06,-34 116.06,-34 116.06,-46 116.06,-46 116.06,-52 110.06,-58 104.06,-58"/>
<text xml:space="preserve" text-anchor="middle" x="81.47" y="-36.67" font-family="TT Commons Pro Trial" font-size="11.00" fill="#f1f5f9">Workers</text>
</g>
<!-- Planner&#45;&gt;Workers -->
<g id="edge1" class="edge">
<title>Planner&#45;&gt;Workers</title>
<path fill="none" stroke="#64748b" stroke-width="1.1" d="M81.47,-109C81.47,-96.87 81.47,-80.42 81.47,-66.74"/>
<polygon fill="#64748b" stroke="#64748b" stroke-width="1.1" points="81.47,-59.57 84.84,-67.07 81.52,-61.98 81.52,-67.07 81.47,-67.07 81.42,-67.07 81.42,-61.98 78.09,-67.07 81.47,-59.57"/>
<text xml:space="preserve" text-anchor="middle" x="98.34" y="-80.7" font-family="TT Commons Pro Trial" font-size="9.00" fill="#94a3b8">delegate</text>
</g>
</g>
</svg>
